<svg xmlns="http://www.w3.org/2000/svg" width="69" height="34" viewBox="0 0 69 34" fill="none">
<path d="M57.9442 2.16615L68.21 8.68881L62.5809 19.4705L54.1636 21.7259L59.8319 10.9337L49.5269 4.42156L57.9442 2.16615Z" fill="#07FFC5"/>
<path d="M19.172 31.1019L10.7547 33.3573L0.488892 26.8346L6.11802 16.0529L14.5353 13.7975L8.86701 24.5897L19.172 31.1019Z" fill="#07FFC5"/>
<path d="M33.1592 11.9965C33.1592 14.7282 30.9447 16.9427 28.2129 16.9427C25.4811 16.9427 23.2666 14.7282 23.2666 11.9965C23.2666 9.26472 25.4811 7.05019 28.2129 7.05019C30.9447 7.05019 33.1592 9.26472 33.1592 11.9965Z" fill="#07FFC5"/>
<path fill-rule="evenodd" clip-rule="evenodd" d="M50.989 16.9428C50.989 26.1743 43.5054 33.6579 34.2738 33.6579C25.0423 33.6579 17.5587 26.1743 17.5587 16.9428C17.5587 7.71121 25.0423 0.22757 34.2738 0.22757C43.5054 0.22757 50.989 7.71121 50.989 16.9428ZM39.5085 14.3774C39.5085 19.5324 35.3296 23.7113 30.1747 23.7113C25.0198 23.7113 20.8409 19.5324 20.8409 14.3774C20.8409 9.22253 25.0198 5.04364 30.1747 5.04364C35.3296 5.04364 39.5085 9.22253 39.5085 14.3774ZM42.464 24.5755C42.9302 23.9502 42.8013 23.0654 42.176 22.5992C41.5507 22.133 40.6659 22.2619 40.1997 22.8872C35.8068 28.7789 30.5724 27.8464 28.6798 26.8491C27.9898 26.4854 27.1357 26.75 26.7721 27.44C26.4085 28.13 26.6731 28.9841 27.3631 29.3477C30.2825 30.8862 37.1092 31.7571 42.464 24.5755Z" fill="#07FFC5"/>
</svg>